<?xml version="1.0" encoding="UTF-8"?>
<svg width="1061px" height="287px" viewBox="0 0 1061 287" version="1.1" xmlns="http://www.w3.org/2000/svg" xmlns:xlink="http://www.w3.org/1999/xlink">
    <!-- Generator: Sketch 54.1 (76490) - https://sketchapp.com -->
    <title>untappd-vector-logo</title>
    <desc>Created with Sketch.</desc>
    <g id="Page-1" stroke="none" stroke-width="1" fill="none" fill-rule="evenodd">
        <g id="untappd-vector-logo" fill="#FFC000" fill-rule="nonzero">
            <g id="Group-2" transform="translate(384.000000, 59.000000)">
                <g id="Group" transform="translate(154.686000, 143.897000)">
                    <path d="M5,4.9 L5,19.5 L9.1,19.5 C13.5,19.5 16.4,16.6 16.4,12.3 L16.4,12.2 C16.4,7.9 13.5,4.9 9.1,4.9 L5,4.9 Z M0.1,0.4 L9.2,0.4 C16.6,0.4 21.7,5.5 21.7,12.1 L21.7,12.2 C21.7,18.8 16.6,24 9.2,24 L0.1,24 L0.1,0.4 Z M42.4,11.9 C45,11.9 46.5,10.5 46.5,8.4 L46.5,8.3 C46.5,6 44.9,4.8 42.3,4.8 L37,4.8 L37,11.8 L42.4,11.8 L42.4,11.9 Z M32.1,0.4 L42.8,0.4 C45.8,0.4 48.1,1.2 49.6,2.8 C50.9,4.1 51.6,5.9 51.6,8.1 L51.6,8.2 C51.6,12 49.5,14.4 46.5,15.5 L52.4,24 L46.6,24 L41.4,16.3 L37,16.3 L37,24 L32.1,24 L32.1,0.4 Z" id="Shape"></path>
                    <polygon id="Path" points="62.3 23.9 67.3 23.9 67.3 0.4 62.3 0.4"></polygon>
                    <polygon id="Path" points="79 0.4 83.5 0.4 94.9 15.2 94.9 0.4 99.8 0.4 99.8 23.9 95.5 23.9 83.9 8.6 83.9 23.9 79 23.9"></polygon>
                    <polygon id="Path" points="111.3 0.4 116.2 0.4 116.2 11 126 0.4 132.1 0.4 122.5 10.4 132.5 23.9 126.6 23.9 119.1 13.8 116.2 16.8 116.2 23.9 111.3 23.9"></polygon>
                    <path d="M155.7,20.5 L158.6,17 C160.7,18.8 163,19.9 165.7,19.9 C167.9,19.9 169.2,19 169.2,17.5 L169.2,17.4 C169.2,16 168.4,15.3 164.4,14.3 C159.6,13.1 156.6,11.7 156.6,7.1 L156.6,7 C156.6,2.8 160,-5.68434189e-14 164.8,-5.68434189e-14 C168.2,-5.68434189e-14 171.1,1.1 173.5,3 L170.9,6.8 C168.8,5.3 166.8,4.4 164.7,4.4 C162.6,4.4 161.5,5.4 161.5,6.6 L161.5,6.7 C161.5,8.3 162.5,8.9 166.7,9.9 C171.5,11.1 174.2,12.9 174.2,16.9 L174.2,17 C174.2,21.6 170.7,24.2 165.6,24.2 C162,24.3 158.5,23 155.7,20.5 M203.2,12.2 L203.2,12.2 C203.2,8 200.2,4.5 195.9,4.5 C191.6,4.5 188.7,7.9 188.7,12 L188.7,12.1 C188.7,16.2 191.7,19.7 196,19.7 C200.2,19.8 203.2,16.4 203.2,12.2 M183.5,12.2 L183.5,12.2 C183.5,5.5 188.8,0 196,0 C203.2,0 208.4,5.4 208.4,12.1 L208.4,12.2 C208.4,18.9 203.1,24.4 195.9,24.4 C188.7,24.3 183.5,18.9 183.5,12.2 M217.7,12.2 L217.7,12.2 C217.7,5.4 222.7,0 229.9,0 C234.3,0 237,1.5 239.2,3.6 L236,7.3 C234.2,5.6 232.3,4.6 229.9,4.6 C225.8,4.6 222.9,8 222.9,12.1 L222.9,12.2 C222.9,16.3 225.8,19.8 229.9,19.8 C232.6,19.8 234.3,18.7 236.2,17 L239.4,20.2 C237,22.8 234.3,24.4 229.8,24.4 C222.9,24.3 217.7,19 217.7,12.2" id="Shape"></path>
                    <polygon id="Path" points="249.6 23.9 254.5 23.9 254.5 0.4 249.6 0.4"></polygon>
                    <path d="M279.9,14.2 L276.6,6.2 L273.3,14.2 L279.9,14.2 Z M274.3,0.2 L278.9,0.2 L289,23.9 L283.8,23.9 L281.6,18.5 L271.4,18.5 L269.2,23.9 L264.1,23.9 L274.3,0.2 Z" id="Shape"></path>
                    <polygon id="Path" points="298.5 0.4 303.5 0.4 303.5 19.4 315.3 19.4 315.3 23.9 298.5 23.9"></polygon>
                    <polygon id="Path" points="325 0.4 330 0.4 330 19.4 341.8 19.4 341.8 23.9 325 23.9"></polygon>
                    <polygon id="Path" points="353.8 14.7 344.7 0.4 350.5 0.4 356.3 10 362.2 0.4 367.9 0.4 358.8 14.6 358.8 23.9 353.8 23.9"></polygon>
                </g>
                <g id="Group" transform="translate(0.000000, 0.000000)">
                    <path d="M0.4,73.2 L0.4,2.8 C0.4,2.2 0.9,1.7 1.5,1.7 L22.3,1.7 C22.9,1.7 23.4,2.2 23.4,2.8 L23.4,71.8 C23.4,88.1 30.5,94.4 45.8,94.4 C60.9,94.4 67.8,88.1 67.8,71.8 L67.8,2.8 C67.8,2.2 68.3,1.7 68.9,1.7 L89.7,1.7 C90.3,1.7 90.8,2.2 90.8,2.8 L90.8,73.2 C90.8,101.5 71.2,115.2 45.8,115.2 C20,115.1 0.4,101.5 0.4,73.2 L0.4,73.2 Z M107.7,0.5 L175.9,64.7 L175.8,2.8 C175.8,2.2 176.3,1.7 176.9,1.7 L196.2,1.7 C196.8,1.7 197.3,2.2 197.3,2.8 L197.3,113.9 C197.3,115 196,115.6 195.1,114.8 L127,50.7 L127,112.5 C127,113.1 126.5,113.6 125.9,113.6 L106.6,113.6 C106,113.6 105.5,113.1 105.5,112.5 L105.6,1.4 C105.5,0.3 106.8,-0.3 107.7,0.5 L107.7,0.5 Z M241.9,21.9 L211.1,21.9 C210.5,21.9 210,21.4 210,20.8 L210,2.8 C210,2.2 210.5,1.7 211.1,1.7 L295.6,1.7 C296.2,1.7 296.7,2.2 296.7,2.8 L296.7,20.8 C296.7,21.4 296.2,21.9 295.6,21.9 L264.8,21.9 L264.8,112.5 C264.8,113.1 264.3,113.6 263.7,113.6 L243,113.6 C242.4,113.6 241.9,113.1 241.9,112.5 L241.9,21.9 Z M333.7,43.4 L318.8,81.7 L348.2,81.7 L333.7,43.4 Z M334.9,1.1 L385.1,112.1 C385.4,112.8 384.9,113.7 384.1,113.7 L362.4,113.7 C361.9,113.7 361.5,113.4 361.4,113 L356.4,101 L311,101 L306,113 C305.8,113.4 305.4,113.7 305,113.7 L285.3,113.7 C284.5,113.7 283.9,112.9 284.3,112.1 L332.6,1.1 C333,0.1 334.4,0.1 334.9,1.1 L334.9,1.1 Z M426.9,67.9 C445.6,67.9 453.8,60.3 453.8,45 C453.8,29.5 445.3,21.9 426.9,21.9 L419.7,21.9 L419.7,67.9 L426.9,67.9 Z M396.7,2.8 C396.7,2.2 397.2,1.7 397.8,1.7 L427.6,1.7 C458.8,1.7 477.6,18 477.6,45 C477.6,72 458.7,88.2 427.6,88.2 L419.7,88.2 L419.7,112.6 C419.7,113.2 419.2,113.7 418.6,113.7 L397.8,113.7 C397.2,113.7 396.7,113.2 396.7,112.6 L396.7,2.8 Z M521.4,67.9 C540.1,67.9 548.4,60.3 548.4,45 C548.4,29.5 539.8,21.9 521.4,21.9 L514.2,21.9 L514.2,67.9 L521.4,67.9 Z M491.2,2.8 C491.2,2.2 491.7,1.7 492.3,1.7 L522.1,1.7 C553.3,1.7 572.1,18 572.1,45 C572.1,72 553.2,88.2 522.1,88.2 L514.2,88.2 L514.2,112.6 C514.2,113.2 513.7,113.7 513.1,113.7 L492.3,113.7 C491.7,113.7 491.2,113.2 491.2,112.6 L491.2,2.8 Z M616.9,93.4 C641.7,93.4 653.1,78.6 653.1,57.7 C653.1,36.8 641.8,22 616.9,22 L606.7,22 L606.7,93.5 L616.9,93.5 L616.9,93.4 Z M583.7,2.8 C583.7,2.2 584.2,1.7 584.8,1.7 L618,1.7 C652.4,1.7 676.8,24.6 676.8,57.7 C676.8,90.8 652.5,113.7 618,113.7 L584.8,113.7 C584.2,113.7 583.7,113.2 583.7,112.6 L583.7,2.8 Z" id="Shape"></path>
                </g>
            </g>
            <g id="Group">
                <path d="M157.497761,161.908659 L74.0977611,278.408659 C69.7977611,284.408659 62.5977611,287.508659 55.3977611,286.608659 C47.0977611,285.608659 35.6977611,282.508659 23.9977611,274.008659 C12.1977611,265.508659 5.69776115,255.708659 1.99776115,248.208659 C-1.20223885,241.608659 -0.502238853,233.808659 3.69776115,227.808659 L87.0977611,111.308659 C91.0977611,105.808659 96.2977611,101.208659 102.297761,98.0086592 L118.697761,89.3086592 C121.997761,87.6086592 124.897761,85.2086592 127.397761,82.5086592 C135.397761,73.5086592 156.697761,49.8086592 194.697761,11.5086592 L195.397761,8.50865919 C195.597761,7.80865919 196.097761,7.20865919 196.797761,7.10865919 L198.897761,6.60865919 C199.797761,6.40865919 200.397761,5.50865919 200.297761,4.60865919 L200.097761,2.00865919 C199.997761,0.908659194 200.797761,0.00865919392 201.897761,0.00865919392 C204.397761,-0.0913408061 209.297761,0.708659194 216.197761,5.60865919 C223.097761,10.6086592 225.397761,15.0086592 226.097761,17.4086592 C226.397761,18.4086592 225.797761,19.5086592 224.697761,19.8086592 L222.197761,20.4086592 C221.297761,20.6086592 220.697761,21.5086592 220.697761,22.4086592 L220.897761,24.6086592 C220.997761,25.3086592 220.597761,26.0086592 219.997761,26.4086592 L217.297761,28.0086592 C193.297761,76.2086592 177.697761,104.108659 171.697761,114.608659 C169.797761,117.808659 168.597761,121.408659 167.997761,125.108659 L165.097761,143.508659 C164.097761,149.908659 161.497761,156.308659 157.497761,161.908659 Z M339.897761,227.708659 L256.497761,111.208659 C252.497761,105.708659 247.297761,101.108659 241.297761,97.9086592 L224.897761,89.2086592 C221.597761,87.5086592 218.697761,85.1086592 216.197761,82.4086592 C214.197761,80.2086592 211.397761,77.0086592 207.797761,73.0086592 C207.197761,72.4086592 206.197761,72.5086592 205.797761,73.3086592 C193.197761,97.6086592 184.597761,112.708659 180.797761,119.508659 C179.597761,121.708659 178.697761,124.008659 178.297761,126.408659 C177.497761,131.608659 177.497761,137.008659 178.297761,142.208659 L178.397761,143.108659 C179.497761,149.808659 182.097761,156.208659 186.097761,161.808659 L269.497761,278.308659 C273.697761,284.208659 280.797761,287.408659 287.997761,286.508659 C296.297761,285.508659 307.797761,282.408659 319.597761,273.908659 C331.397761,265.408659 337.897761,255.608659 341.597761,248.108659 C344.797761,241.508659 344.197761,233.708659 339.897761,227.708659 L339.897761,227.708659 Z M118.897761,19.6086592 L121.397761,20.2086592 C122.297761,20.4086592 122.897761,21.3086592 122.897761,22.2086592 L122.697761,24.4086592 C122.597761,25.1086592 122.997761,25.8086592 123.597761,26.2086592 L126.297761,27.8086592 C130.697761,36.7086592 134.897761,44.9086592 138.697761,52.4086592 C139.097761,53.1086592 139.997761,53.3086592 140.597761,52.7086592 C146.897761,46.0086592 154.397761,38.0086592 163.297761,28.8086592 C163.997761,28.0086592 164.097761,26.8086592 163.297761,26.1086592 C158.797761,21.5086592 154.097761,16.7086592 148.897761,11.5086592 L148.197761,8.50865919 C148.097761,7.80865919 147.497761,7.30865919 146.797761,7.10865919 L144.697761,6.60865919 C143.797761,6.40865919 143.197761,5.50865919 143.297761,4.60865919 L143.497761,2.00865919 C143.597761,0.908659194 142.797761,0.00865919392 141.697761,0.00865919392 C139.197761,-0.0913408061 134.297761,0.608659194 127.297761,5.60865919 C120.397761,10.6086592 118.097761,15.0086592 117.397761,17.4086592 C117.197761,18.3086592 117.897761,19.4086592 118.897761,19.6086592 L118.897761,19.6086592 Z" id="Shape"></path>
            </g>
        </g>
    </g>
</svg>